<svg width="24" height="24" viewBox="0 0 24 24" fill="none" xmlns="http://www.w3.org/2000/svg">
<path d="M12 0C5.373 0 0 5.373 0 12C0 18.627 5.373 24 12 24C18.627 24 24 18.627 24 12C24 5.373 18.627 0 12 0ZM13 16.057V13H15.994C15.935 14.143 15.782 15.24 15.538 16.279C14.715 16.159 13.864 16.091 13 16.057V16.057ZM14.957 18.219C14.458 19.549 13.798 20.716 13 21.675V18.055C13.666 18.083 14.319 18.136 14.957 18.219ZM13 11V7.985C13.868 7.951 14.721 7.882 15.548 7.761C15.786 8.788 15.937 9.872 15.994 11H13ZM13 5.986V2.325C13.806 3.294 14.471 4.475 14.971 5.821C14.329 5.905 13.671 5.958 13 5.986ZM15.703 2.719C16.94 3.215 18.057 3.947 18.993 4.865C18.351 5.099 17.682 5.307 16.974 5.472C16.63 4.48 16.199 3.562 15.703 2.719V2.719ZM8.462 16.279C8.218 15.24 8.064 14.143 8.006 13H11V16.057C10.135 16.091 9.286 16.159 8.462 16.279ZM11 18.055V21.675C10.202 20.716 9.542 19.549 9.043 18.219C9.681 18.136 10.334 18.083 11 18.055ZM8.006 11C8.063 9.872 8.213 8.788 8.452 7.761C9.279 7.882 10.132 7.951 11 7.985V11H8.006ZM9.03 5.821C9.53 4.475 10.195 3.294 11 2.325V5.986C10.329 5.958 9.671 5.905 9.03 5.821ZM7.025 5.471C6.317 5.306 5.648 5.098 5.007 4.864C5.944 3.946 7.06 3.214 8.297 2.718C7.801 3.562 7.37 4.48 7.025 5.471V5.471ZM6.476 7.389C6.212 8.54 6.042 9.749 5.984 11H2.051C2.216 9.342 2.79 7.803 3.668 6.482C4.548 6.843 5.484 7.152 6.476 7.389ZM6.485 16.651C5.497 16.887 4.565 17.193 3.688 17.551C2.798 16.223 2.217 14.672 2.051 13H5.985C6.043 14.265 6.216 15.488 6.485 16.651ZM7.038 18.568C7.38 19.544 7.806 20.449 8.295 21.28C7.072 20.79 5.969 20.069 5.039 19.165C5.675 18.936 6.338 18.73 7.038 18.568V18.568ZM16.962 18.568C17.662 18.731 18.324 18.935 18.961 19.165C18.03 20.068 16.927 20.79 15.704 21.281C16.193 20.449 16.619 19.544 16.962 18.568ZM17.515 16.651C17.785 15.488 17.957 14.265 18.016 13H21.95C21.783 14.672 21.202 16.223 20.312 17.551C19.435 17.193 18.502 16.887 17.515 16.651V16.651ZM18.016 11C17.958 9.749 17.787 8.54 17.524 7.389C18.516 7.152 19.453 6.843 20.333 6.482C21.21 7.803 21.784 9.342 21.949 11H18.016Z" fill="white"/>
</svg>
